<svg id="Capa_1" data-name="Capa 1" xmlns="http://www.w3.org/2000/svg" viewBox="0 0 204.15 51.86"><defs><style>.cls-1{fill:#22a1db;}.cls-2{fill:#e94f27;}.cls-3{fill:#abca3c;}.cls-4{fill:#62c3d9;}.cls-5{fill:#da2185;}.cls-6{fill:#f9e927;}.cls-7{fill:#de1f85;}.cls-12,.cls-8{fill:#0b5ea4;}.cls-9{fill:#80ad3f;}.cls-10{fill:#f6ca11;}.cls-11{fill:#f08221;}.cls-12{font-size:6.29px;font-family:Strawford-Regular, Strawford;letter-spacing:-0.05em;}.cls-13{letter-spacing:-0.07em;}.cls-14{letter-spacing:-0.07em;}.cls-15{letter-spacing:-0.06em;}.cls-16{letter-spacing:-0.05em;}.cls-17{letter-spacing:-0.07em;}.cls-18{letter-spacing:-0.06em;}.cls-19{letter-spacing:-0.05em;}</style></defs><title>CEDUCAP HEADER MOBILE</title><path class="cls-1" d="M40.05,25.66a11.83,11.83,0,0,1,21.94-6l-3,1.93a8.12,8.12,0,0,0-7.16-4.15,7.93,7.93,0,0,0-8.05,8.2,7.93,7.93,0,0,0,8.05,8.2A8.12,8.12,0,0,0,59,29.71l3,1.92a11.83,11.83,0,0,1-21.94-6Z"/><path class="cls-1" d="M74.51,37.32a11.57,11.57,0,0,1-10.13-5.69l2.82-1.82a8.45,8.45,0,0,0,7.31,4.05,8.08,8.08,0,0,0,8-7.07H63.49A11.16,11.16,0,0,1,74.76,14,11.38,11.38,0,0,1,86.32,25.66,11.69,11.69,0,0,1,74.51,37.32Zm7.9-13.74a7.55,7.55,0,0,0-7.65-6.17c-4.3,0-7.22,3.11-7.46,6.17Z"/><path class="cls-1" d="M107.84.38h3.46V36.77h-3.46v-3a10.83,10.83,0,0,1-8,3.56A11.48,11.48,0,0,1,88,25.71,11.53,11.53,0,0,1,99.79,14a10.69,10.69,0,0,1,8,3.6Zm0,25.33a8.05,8.05,0,1,0-16.1,0,8.05,8.05,0,1,0,16.1,0Z"/><path class="cls-1" d="M184.2,51.47h-3.46V15.18h3.46v3a10.83,10.83,0,0,1,8.05-3.56A11.48,11.48,0,0,1,204,26.24,11.53,11.53,0,0,1,192.25,38a10.69,10.69,0,0,1-8.05-3.6Zm0-25.23a8.05,8.05,0,1,0,16.1,0,8.05,8.05,0,1,0-16.1,0Z"/><path class="cls-1" d="M113.64,27.29V14.54h3.46V27.29c0,4.2,2.42,6.67,6.08,6.67s6.08-2.47,6.08-6.67V14.54h3.45V27.29c0,5.43-3.11,10-9.53,10S113.64,32.72,113.64,27.29Z"/><path class="cls-1" d="M134.69,25.66a11.83,11.83,0,0,1,21.94-6l-3,1.93a8.13,8.13,0,0,0-7.17-4.15,7.93,7.93,0,0,0-8,8.2,7.94,7.94,0,0,0,8,8.2,8.13,8.13,0,0,0,7.17-4.15l3,1.92a11.83,11.83,0,0,1-21.94-6Z"/><path class="cls-1" d="M158.34,30.15c0-3.95,3.22-6.47,7.46-6.47h5.34a2.4,2.4,0,0,0,2.67-2.37c0-1.73-1.88-3.95-5.68-3.95a6.3,6.3,0,0,0-6.28,4.25l-2.72-1.78a9.2,9.2,0,0,1,9-5.83c5.78,0,9.28,3.75,9.28,8.25V36.77h-3.16V33.51c-.69,1.58-3.46,3.81-7.26,3.81C161.75,37.32,158.34,34.1,158.34,30.15ZM174,27v-.3h-8.11c-2.27,0-3.8,1.44-3.8,3.41S163.78,34,167,34C171.39,34,174,31.14,174,27Z"/><path class="cls-2" d="M23.35,16.06a10.57,10.57,0,0,1,2.19-.23,9.12,9.12,0,0,1,1.18.07,9.46,9.46,0,0,1,1.92-4.44H24.26A2,2,0,0,1,23,10.37a9.6,9.6,0,0,1-1.47,3A10.62,10.62,0,0,1,23.35,16.06Z"/><path class="cls-2" d="M23.41,7.53a9.23,9.23,0,0,1-.08,1.18A4,4,0,0,0,24.43,6a4.07,4.07,0,0,0-2.63-3.8A9.71,9.71,0,0,1,23.41,7.53Z"/><path class="cls-1" d="M17.8,33.48A10.75,10.75,0,0,1,16.11,31a10.57,10.57,0,0,1-2.47.29,8.25,8.25,0,0,1-.86,0A10.94,10.94,0,0,1,10,36a1,1,0,0,0,.82.41h4.37A8.3,8.3,0,0,1,17.8,33.48Z"/><path class="cls-2" d="M18.88,2.18a4,4,0,0,0-2.54,3.33A10.26,10.26,0,0,1,18.88,2.18Z"/><path class="cls-2" d="M21.8,2.15a4.26,4.26,0,0,0-1.43-.26,3.92,3.92,0,0,0-1.49.29,10.26,10.26,0,0,0-2.54,3.33c0,.15,0,.29,0,.44A4.06,4.06,0,0,0,18,9.23h0a2.49,2.49,0,0,1-.38,1.42,10.74,10.74,0,0,1,3.9,2.67,9.6,9.6,0,0,0,1.47-3,2.47,2.47,0,0,1-.22-1.14h0a4,4,0,0,0,.57-.52,9.23,9.23,0,0,0,.08-1.18A9.71,9.71,0,0,0,21.8,2.15Z"/><path class="cls-3" d="M29.77,36c.09.15.18.3.26.46h3.69a1,1,0,0,0,1-1.05v-4A10.55,10.55,0,0,1,29.77,36Z"/><path class="cls-2" d="M21.93,36.45h.66l-.6-.19C22,36.32,22,36.38,21.93,36.45Z"/><path class="cls-2" d="M17.8,33.48a8.3,8.3,0,0,0-2.61,3h6.74c0-.07.05-.13.06-.19A10.56,10.56,0,0,1,17.8,33.48Z"/><path class="cls-4" d="M28.5,36.45H30c-.08-.16-.17-.31-.26-.46A10.64,10.64,0,0,1,28.5,36.45Z"/><path class="cls-5" d="M2.94,20.1A4.06,4.06,0,0,0,4.2,28a3.91,3.91,0,0,0,1.46-.27,10.67,10.67,0,0,1-2.73-7.15C2.93,20.43,2.93,20.27,2.94,20.1Z"/><path class="cls-1" d="M9.78,30.58V35.4A1,1,0,0,0,10,36a10.94,10.94,0,0,0,2.78-4.77A10.34,10.34,0,0,1,9.78,30.58Z"/><path class="cls-6" d="M12.78,25.32a7.67,7.67,0,0,1,2.28.08,10.53,10.53,0,0,1,4.21-7.5,9.56,9.56,0,0,1-1.55-1.5,9.72,9.72,0,0,1-7.83.15.76.76,0,0,0-.11.14V19.9c0,.12-.07.23-.11.33A11,11,0,0,1,12.78,25.32Z"/><path class="cls-2" d="M17.72,16.4a9.56,9.56,0,0,0,1.55,1.5,10.59,10.59,0,0,1,4.08-1.84,10.62,10.62,0,0,0-1.84-2.74A9.81,9.81,0,0,1,17.72,16.4Z"/><path class="cls-1" d="M15.06,25.4a7.67,7.67,0,0,0-2.28-.08,10.83,10.83,0,0,1,.41,3,10.76,10.76,0,0,1-.41,3,8.25,8.25,0,0,0,.86,0A10.57,10.57,0,0,0,16.11,31,10.42,10.42,0,0,1,15,26.35C15,26,15,25.71,15.06,25.4Z"/><path class="cls-3" d="M13.64,17.3a9.74,9.74,0,0,0,4.08-.9,10.12,10.12,0,0,1-2.23-4.94h-3.9a8.64,8.64,0,0,1-1.7,5.09A9.73,9.73,0,0,0,13.64,17.3Z"/><path class="cls-7" d="M21.51,13.32a10.74,10.74,0,0,0-3.9-2.67,2,2,0,0,1-1.13.81h-1a10.12,10.12,0,0,0,2.23,4.94A9.81,9.81,0,0,0,21.51,13.32Z"/><path class="cls-5" d="M9.67,20.23a2.2,2.2,0,0,1-2.19,1.34h0a4,4,0,0,0-3-1.65,9.36,9.36,0,0,1-1.41.14l-.14,0c0,.17,0,.33,0,.49a10.67,10.67,0,0,0,2.73,7.15,4,4,0,0,0,1.82-1.4h0a2.44,2.44,0,0,1,1.41.36,8.58,8.58,0,0,1,3.89-1.38A11,11,0,0,0,9.67,20.23Z"/><path class="cls-8" d="M13.19,28.3a10.83,10.83,0,0,0-.41-3A8.58,8.58,0,0,0,8.89,26.7,2.16,2.16,0,0,1,9.78,28v2.57a10.34,10.34,0,0,0,3,.69A10.76,10.76,0,0,0,13.19,28.3Z"/><path class="cls-9" d="M9.78,16.49v.2a.76.76,0,0,1,.11-.14Z"/><path class="cls-3" d="M11.59,11.46h-.77a1,1,0,0,0-1,1v4l.11.06A8.64,8.64,0,0,0,11.59,11.46Z"/><path class="cls-5" d="M4.2,19.9a4.21,4.21,0,0,0-1.12.16,9.36,9.36,0,0,0,1.41-.14Z"/><path class="cls-1" d="M31.82,17.9a10.75,10.75,0,0,1,2.59,2.79,2.33,2.33,0,0,0,.35-.76V14.22A10.36,10.36,0,0,1,31.82,17.9Z"/><path class="cls-2" d="M31.82,17.9a10.36,10.36,0,0,0,2.94-3.68V12.51a1,1,0,0,0-1-1H28.64a9.46,9.46,0,0,0-1.92,4.44A10.49,10.49,0,0,1,31.82,17.9Z"/><path class="cls-7" d="M25.54,20.07a9.67,9.67,0,0,1-1.2-.08c0,.2,0,.4,0,.6a10.7,10.7,0,0,1-3.78,8.17A8.43,8.43,0,0,1,22.08,32c.18,0,.35,0,.53,0a8.61,8.61,0,0,1,2.35.34,10.79,10.79,0,0,1,1.65-5.21,4.05,4.05,0,0,1,.55-6.63c-.05-.16-.11-.32-.16-.49A9.93,9.93,0,0,1,25.54,20.07Z"/><path class="cls-2" d="M25.54,20.07A9.93,9.93,0,0,0,27,20a9.4,9.4,0,0,1-.38-2.66,10.6,10.6,0,0,1,.1-1.4,9.12,9.12,0,0,0-1.18-.07,10.57,10.57,0,0,0-2.19.23,10.36,10.36,0,0,1,1,3.93A9.67,9.67,0,0,0,25.54,20.07Z"/><path class="cls-1" d="M17.8,33.48A8.35,8.35,0,0,1,22.08,32a8.43,8.43,0,0,0-1.5-3.22A10.59,10.59,0,0,1,16.11,31,10.75,10.75,0,0,0,17.8,33.48Z"/><path class="cls-1" d="M29.77,36a10.55,10.55,0,0,0,5-4.57V28a2.17,2.17,0,0,0-2.28-1.64h0a4.06,4.06,0,0,1-5.87.74A10.79,10.79,0,0,0,25,32.29,8.4,8.4,0,0,1,29.77,36Z"/><path class="cls-10" d="M25,32.29A8.61,8.61,0,0,0,22.61,32c-.18,0-.35,0-.53,0A8.23,8.23,0,0,1,22,36.26l.6.19h3A10.59,10.59,0,0,1,25,32.83C25,32.65,25,32.47,25,32.29Z"/><path class="cls-2" d="M22,36.26A8.23,8.23,0,0,0,22.08,32a8.35,8.35,0,0,0-4.28,1.5A10.56,10.56,0,0,0,22,36.26Z"/><path class="cls-2" d="M25,32.29c0,.18,0,.36,0,.54a10.59,10.59,0,0,0,.63,3.62H28.5A10.64,10.64,0,0,0,29.77,36,8.4,8.4,0,0,0,25,32.29Z"/><path class="cls-10" d="M15.06,25.4a8.63,8.63,0,0,1,5.52,3.36,10.7,10.7,0,0,0,3.78-8.17c0-.2,0-.4,0-.6a10.1,10.1,0,0,1-5.07-2.09A10.53,10.53,0,0,0,15.06,25.4Z"/><path class="cls-11" d="M24.34,20a10.36,10.36,0,0,0-1-3.93,10.59,10.59,0,0,0-4.08,1.84A10.1,10.1,0,0,0,24.34,20Z"/><path class="cls-8" d="M15.06,25.4c0,.31,0,.63,0,1A10.42,10.42,0,0,0,16.11,31a10.59,10.59,0,0,0,4.47-2.26A8.63,8.63,0,0,0,15.06,25.4Z"/><path class="cls-9" d="M31.82,17.9A10.19,10.19,0,0,1,27,20c.05.17.11.33.16.49a4.06,4.06,0,0,1,5.32,1.12h0a2.27,2.27,0,0,0,1.93-.88A10.75,10.75,0,0,0,31.82,17.9Z"/><path class="cls-11" d="M27,20a10.19,10.19,0,0,0,4.82-2.06,10.49,10.49,0,0,0-5.1-2,10.6,10.6,0,0,0-.1,1.4A9.4,9.4,0,0,0,27,20Z"/><text class="cls-12" transform="translate(41.99 50.42)">Cent<tspan class="cls-13" x="12.86" y="0">r</tspan><tspan x="14.66" y="0">o de Desar</tspan><tspan class="cls-14" x="42.34" y="0">r</tspan><tspan x="44.14" y="0">ol</tspan><tspan class="cls-15" x="48.88" y="0">l</tspan><tspan class="cls-16" x="50.19" y="0">o Educacional y P</tspan><tspan class="cls-17" x="95.26" y="0">r</tspan><tspan class="cls-16" x="97.06" y="0">o</tspan><tspan class="cls-18" x="100.39" y="0">f</tspan><tspan class="cls-19" x="102.18" y="0">esional A.</tspan><tspan class="cls-13" x="126.18" y="0">C</tspan><tspan class="cls-16" x="130.5" y="0">.</tspan></text></svg>